<svg width="18" height="18" viewBox="0 0 18 18" fill="none" xmlns="http://www.w3.org/2000/svg">
<g clip-path="url(#clip0_97_13)">
<path d="M16.1093 4.52558C16.1202 4.71705 16.1202 4.90852 16.1202 5.10175C16.1202 10.9897 12.4331 17.7803 5.69104 17.7803V17.7768C3.69943 17.7803 1.74918 17.0868 0.0725708 15.7791C0.362168 15.8215 0.653216 15.8426 0.94499 15.8435C2.59547 15.8453 4.19878 15.172 5.49725 13.9323C3.92878 13.8962 2.55338 12.6529 2.07289 10.8379C2.62233 10.9668 3.18846 10.9403 3.72773 10.7612C2.01773 10.3412 0.78749 8.5147 0.78749 6.39352C0.78749 6.37411 0.78749 6.35558 0.78749 6.33705C1.29701 6.68205 1.86749 6.87352 2.45104 6.8947C0.840474 5.58617 0.344022 2.98146 1.3166 0.944989C3.17757 3.72881 5.9233 5.42117 8.8708 5.60028C8.57539 4.05264 8.97894 2.43087 9.9312 1.34293C11.4075 -0.344128 13.7293 -0.257658 15.1171 1.53617C15.938 1.3394 16.7247 0.973225 17.4447 0.454401C17.1711 1.48587 16.5985 2.36205 15.8335 2.91881C16.56 2.8147 17.2698 2.57822 17.9383 2.21734C17.4462 3.11381 16.8264 3.8947 16.1093 4.52558Z" fill="white"/>
</g>
<defs>
<clipPath id="clip0_97_13">
<rect width="18" height="18" fill="white"/>
</clipPath>
</defs>
</svg>
